<svg width="1400" height="1000" xmlns="http://www.w3.org/2000/svg">
  <defs>
    <!-- Drop shadow filter -->
    <filter id="shadow" x="-50%" y="-50%" width="200%" height="200%">
      <feGaussianBlur in="SourceAlpha" stdDeviation="3"/>
      <feOffset dx="2" dy="2" result="offsetblur"/>
      <feComponentTransfer>
        <feFuncA type="linear" slope="0.3"/>
      </feComponentTransfer>
      <feMerge>
        <feMergeNode/>
        <feMergeNode in="SourceGraphic"/>
      </feMerge>
    </filter>

    <!-- Arrow marker for property edges -->
    <marker id="arrowhead" markerWidth="10" markerHeight="10" refX="9" refY="3" orient="auto">
      <polygon points="0 0, 10 3, 0 6" fill="#666"/>
    </marker>
  </defs>

  <style>
    .class-node {
      fill: #4A90E2;
      stroke: #2E5C8A;
      stroke-width: 3;
      filter: url(#shadow);
      cursor: pointer;
      transition: all 0.3s;
    }
    .class-node:hover {
      fill: #5BA3F5;
      stroke: #3D6FA0;
      stroke-width: 4;
    }
    .property-node {
      fill: #50C878;
      stroke: #2E8B57;
      stroke-width: 2;
      filter: url(#shadow);
      cursor: pointer;
      transition: all 0.3s;
    }
    .property-node:hover {
      fill: #60D888;
      stroke: #3E9B67;
      stroke-width: 3;
    }
    .literal-node {
      fill: #FFD700;
      stroke: #DAA520;
      stroke-width: 2;
      filter: url(#shadow);
    }
    .xsd-node {
      fill: #FFA500;
      stroke: #CC8400;
      stroke-width: 2;
      filter: url(#shadow);
    }
    .class-label {
      font-family: Arial, sans-serif;
      font-size: 14px;
      font-weight: bold;
      fill: white;
      text-anchor: middle;
      pointer-events: none;
    }
    .property-label {
      font-family: Arial, sans-serif;
      font-size: 12px;
      font-weight: bold;
      fill: white;
      text-anchor: middle;
      pointer-events: none;
    }
    .edge {
      stroke: #666;
      stroke-width: 2;
      fill: none;
      marker-end: url(#arrowhead);
    }
    .edge-label {
      font-family: Arial, sans-serif;
      font-size: 11px;
      fill: #333;
      text-anchor: middle;
      background: white;
      pointer-events: none;
    }
    .title {
      font-family: Arial, sans-serif;
      font-size: 24px;
      font-weight: bold;
      fill: #2E5C8A;
      text-anchor: middle;
    }
    .legend-text {
      font-family: Arial, sans-serif;
      font-size: 12px;
      fill: #333;
    }
    .info-box {
      fill: #f0f0f0;
      stroke: #999;
      stroke-width: 1;
      rx: 5;
      display: none;
      pointer-events: none;
    }
    .info-text {
      font-family: Arial, sans-serif;
      font-size: 11px;
      fill: #333;
      display: none;
      pointer-events: none;
    }
  </style>

  <!-- Title -->
  <text x="700" y="30" class="title">Emily Dickinson Poem RDF Schema</text>

  <!-- Main Classes (Top Row) -->
  <g id="Poem" onmouseover="showInfo('Poem')" onmouseout="hideInfo('Poem')">
    <rect x="600" y="80" width="200" height="80" rx="10" class="class-node"/>
    <text x="700" y="115" class="class-label">Poem</text>
    <text x="700" y="135" class="class-label" font-size="10px" opacity="0.9">rdfs:Class</text>
  </g>
  <rect id="Poem-info-box" x="810" y="80" width="280" height="40" class="info-box"/>
  <text id="Poem-info-text" x="820" y="100" class="info-text">A literary work in verse form</text>

  <!-- Secondary Classes (Middle Row) -->
  <g id="Stanza" onmouseover="showInfo('Stanza')" onmouseout="hideInfo('Stanza')">
    <rect x="150" y="280" width="160" height="70" rx="10" class="class-node"/>
    <text x="230" y="310" class="class-label">Stanza</text>
    <text x="230" y="328" class="class-label" font-size="10px" opacity="0.9">rdfs:Class</text>
  </g>
  <rect id="Stanza-info-box" x="320" y="280" width="280" height="40" class="info-box"/>
  <text id="Stanza-info-text" x="330" y="300" class="info-text">A grouped set of lines in a poem</text>

  <g id="Theme" onmouseover="showInfo('Theme')" onmouseout="hideInfo('Theme')">
    <rect x="380" y="280" width="160" height="70" rx="10" class="class-node"/>
    <text x="460" y="310" class="class-label">Theme</text>
    <text x="460" y="328" class="class-label" font-size="10px" opacity="0.9">rdfs:Class</text>
  </g>
  <rect id="Theme-info-box" x="550" y="280" width="320" height="40" class="info-box"/>
  <text id="Theme-info-text" x="560" y="300" class="info-text">A central topic or idea explored in the poem</text>

  <g id="Metaphor" onmouseover="showInfo('Metaphor')" onmouseout="hideInfo('Metaphor')">
    <rect x="610" y="280" width="160" height="70" rx="10" class="class-node"/>
    <text x="690" y="310" class="class-label">Metaphor</text>
    <text x="690" y="328" class="class-label" font-size="10px" opacity="0.9">rdfs:Class</text>
  </g>
  <rect id="Metaphor-info-box" x="780" y="280" width="320" height="40" class="info-box"/>
  <text id="Metaphor-info-text" x="790" y="300" class="info-text">A figure of speech comparing two unlike things</text>

  <g id="Speaker" onmouseover="showInfo('Speaker')" onmouseout="hideInfo('Speaker')">
    <rect x="840" y="280" width="160" height="70" rx="10" class="class-node"/>
    <text x="920" y="310" class="class-label">Speaker</text>
    <text x="920" y="328" class="class-label" font-size="10px" opacity="0.9">rdfs:Class</text>
  </g>
  <rect id="Speaker-info-box" x="1010" y="280" width="300" height="40" class="info-box"/>
  <text id="Speaker-info-text" x="1020" y="300" class="info-text">The voice or persona speaking in the poem</text>

  <g id="Line" onmouseover="showInfo('Line')" onmouseout="hideInfo('Line')">
    <rect x="1070" y="280" width="160" height="70" rx="10" class="class-node"/>
    <text x="1150" y="310" class="class-label">Line</text>
    <text x="1150" y="328" class="class-label" font-size="10px" opacity="0.9">rdfs:Class</text>
  </g>
  <rect id="Line-info-box" x="850" y="280" width="280" height="40" class="info-box"/>
  <text id="Line-info-text" x="860" y="300" class="info-text">A single line of verse in a poem</text>

  <!-- Range types -->
  <g id="Literal">
    <ellipse cx="150" cy="600" rx="60" ry="35" class="literal-node"/>
    <text x="150" y="605" class="property-label">rdfs:Literal</text>
  </g>

  <g id="Integer">
    <ellipse cx="1250" cy="600" rx="70" ry="35" class="xsd-node"/>
    <text x="1250" y="605" class="property-label">xsd:integer</text>
  </g>

  <!-- Properties connecting Poem to other classes -->
  <g id="hasStanza" onmouseover="showInfo('hasStanza')" onmouseout="hideInfo('hasStanza')">
    <ellipse cx="350" cy="190" rx="65" ry="35" class="property-node"/>
    <text x="350" y="195" class="property-label">hasStanza</text>
  </g>
  <rect id="hasStanza-info-box" x="150" y="140" width="280" height="40" class="info-box"/>
  <text id="hasStanza-info-text" x="160" y="160" class="info-text">A stanza contained in the poem</text>

  <g id="hasTheme" onmouseover="showInfo('hasTheme')" onmouseout="hideInfo('hasTheme')">
    <ellipse cx="550" cy="190" rx="68" ry="35" class="property-node"/>
    <text x="550" y="195" class="property-label">hasTheme</text>
  </g>
  <rect id="hasTheme-info-box" x="380" y="140" width="280" height="40" class="info-box"/>
  <text id="hasTheme-info-text" x="390" y="160" class="info-text">A theme explored in the poem</text>

  <g id="usesMetaphor" onmouseover="showInfo('usesMetaphor')" onmouseout="hideInfo('usesMetaphor')">
    <ellipse cx="800" cy="190" rx="82" ry="35" class="property-node"/>
    <text x="800" y="195" class="property-label">usesMetaphor</text>
  </g>
  <rect id="usesMetaphor-info-box" x="720" y="140" width="280" height="40" class="info-box"/>
  <text id="usesMetaphor-info-text" x="730" y="160" class="info-text">A metaphor employed in the poem</text>

  <g id="hasSpeaker" onmouseover="showInfo('hasSpeaker')" onmouseout="hideInfo('hasSpeaker')">
    <ellipse cx="1000" cy="190" rx="72" ry="35" class="property-node"/>
    <text x="1000" y="195" class="property-label">hasSpeaker</text>
  </g>
  <rect id="hasSpeaker-info-box" x="950" y="140" width="280" height="40" class="info-box"/>
  <text id="hasSpeaker-info-text" x="960" y="160" class="info-text">The speaker or voice of the poem</text>

  <!-- Literal properties from Poem -->
  <g id="hasTitle" onmouseover="showInfo('hasTitle')" onmouseout="hideInfo('hasTitle')">
    <ellipse cx="100" cy="120" rx="58" ry="35" class="property-node"/>
    <text x="100" y="125" class="property-label">hasTitle</text>
  </g>
  <rect id="hasTitle-info-box" x="30" y="70" width="200" height="40" class="info-box"/>
  <text id="hasTitle-info-text" x="40" y="90" class="info-text">The title of the poem</text>

  <g id="hasAuthor" onmouseover="showInfo('hasAuthor')" onmouseout="hideInfo('hasAuthor')">
    <ellipse cx="1280" cy="120" rx="65" ry="35" class="property-node"/>
    <text x="1280" y="125" class="property-label">hasAuthor</text>
  </g>
  <rect id="hasAuthor-info-box" x="1150" y="70" width="240" height="40" class="info-box"/>
  <text id="hasAuthor-info-text" x="1160" y="90" class="info-text">The poet who wrote the poem</text>

  <!-- Stanza properties -->
  <g id="hasLine" onmouseover="showInfo('hasLine')" onmouseout="hideInfo('hasLine')">
    <ellipse cx="600" cy="400" rx="55" ry="35" class="property-node"/>
    <text x="600" y="405" class="property-label">hasLine</text>
  </g>
  <rect id="hasLine-info-box" x="380" y="440" width="280" height="40" class="info-box"/>
  <text id="hasLine-info-text" x="390" y="460" class="info-text">A line contained in the stanza</text>

  <!-- Line/Stanza properties -->
  <g id="hasText" onmouseover="showInfo('hasText')" onmouseout="hideInfo('hasText')">
    <ellipse cx="300" cy="490" rx="55" ry="35" class="property-node"/>
    <text x="300" y="495" class="property-label">hasText</text>
  </g>
  <rect id="hasText-info-box" x="150" y="530" width="200" height="40" class="info-box"/>
  <text id="hasText-info-text" x="160" y="550" class="info-text">The textual content</text>

  <g id="hasOrder" onmouseover="showInfo('hasOrder')" onmouseout="hideInfo('hasOrder')">
    <ellipse cx="1100" cy="490" rx="60" ry="35" class="property-node"/>
    <text x="1100" y="495" class="property-label">hasOrder</text>
  </g>
  <rect id="hasOrder-info-box" x="1120" y="530" width="280" height="40" class="info-box"/>
  <text id="hasOrder-info-text" x="1130" y="550" class="info-text">Sequential position in the poem</text>

  <!-- Theme properties -->
  <g id="hasSubject" onmouseover="showInfo('hasSubject')" onmouseout="hideInfo('hasSubject')">
    <ellipse cx="450" cy="450" rx="68" ry="35" class="property-node"/>
    <text x="450" y="455" class="property-label">hasSubject</text>
  </g>
  <rect id="hasSubject-info-box" x="480" y="490" width="260" height="40" class="info-box"/>
  <text id="hasSubject-info-text" x="490" y="510" class="info-text">The subject matter of the theme</text>

  <!-- Metaphor properties -->
  <g id="hasVehicle" onmouseover="showInfo('hasVehicle')" onmouseout="hideInfo('hasVehicle')">
    <ellipse cx="690" cy="450" rx="68" ry="35" class="property-node"/>
    <text x="690" y="455" class="property-label">hasVehicle</text>
  </g>
  <rect id="hasVehicle-info-box" x="720" y="490" width="300" height="40" class="info-box"/>
  <text id="hasVehicle-info-text" x="730" y="510" class="info-text">The metaphorical image used (vehicle)</text>

  <g id="hasTenor" onmouseover="showInfo('hasTenor')" onmouseout="hideInfo('hasTenor')">
    <ellipse cx="820" cy="450" rx="60" ry="35" class="property-node"/>
    <text x="820" y="455" class="property-label">hasTenor</text>
  </g>
  <rect id="hasTenor-info-box" x="850" y="490" width="280" height="40" class="info-box"/>
  <text id="hasTenor-info-text" x="860" y="510" class="info-text">The underlying meaning (tenor)</text>

  <!-- Speaker properties -->
  <g id="addressesTo" onmouseover="showInfo('addressesTo')" onmouseout="hideInfo('addressesTo')">
    <ellipse cx="980" cy="450" rx="73" ry="35" class="property-node"/>
    <text x="980" y="455" class="property-label">addressesTo</text>
  </g>
  <rect id="addressesTo-info-box" x="1010" y="490" width="300" height="40" class="info-box"/>
  <text id="addressesTo-info-text" x="1020" y="510" class="info-text">The addressee of the speaker's words</text>

  <!-- Shared property -->
  <g id="hasDescription" onmouseover="showInfo('hasDescription')" onmouseout="hideInfo('hasDescription')">
    <ellipse cx="600" cy="550" rx="88" ry="35" class="property-node"/>
    <text x="600" y="555" class="property-label">hasDescription</text>
  </g>
  <rect id="hasDescription-info-box" x="650" y="580" width="250" height="40" class="info-box"/>
  <text id="hasDescription-info-text" x="660" y="600" class="info-text">A description or explanation</text>

  <!-- Edges: Properties to Classes -->
  <path d="M 385 170 Q 500 150 630 135" class="edge"/>
  <rect x="490" y="145" width="75" height="16" fill="white" opacity="0.8"/>
  <text x="527" y="157" class="edge-label">rdfs:domain</text>

  <path d="M 320 220 Q 270 240 250 260" class="edge"/>
  <rect x="250" y="235" width="68" height="16" fill="white" opacity="0.8"/>
  <text x="284" y="247" class="edge-label">rdfs:range</text>

  <path d="M 582 175 Q 620 150 650 135" class="edge"/>
  <rect x="600" y="150" width="75" height="16" fill="white" opacity="0.8"/>
  <text x="637" y="162" class="edge-label">rdfs:domain</text>

  <path d="M 530 220 Q 485 250 470 270" class="edge"/>
  <rect x="475" y="240" width="68" height="16" fill="white" opacity="0.8"/>
  <text x="509" y="252" class="edge-label">rdfs:range</text>

  <path d="M 830 175 Q 780 150 750 135" class="edge"/>
  <rect x="770" y="150" width="75" height="16" fill="white" opacity="0.8"/>
  <text x="807" y="162" class="edge-label">rdfs:domain</text>

  <path d="M 770 220 Q 715 250 705 270" class="edge"/>
  <rect x="715" y="240" width="68" height="16" fill="white" opacity="0.8"/>
  <text x="749" y="252" class="edge-label">rdfs:range</text>

  <path d="M 965 175 Q 850 150 750 135" class="edge"/>
  <rect x="840" y="150" width="75" height="16" fill="white" opacity="0.8"/>
  <text x="877" y="162" class="edge-label">rdfs:domain</text>

  <path d="M 1030 220 Q 950 250 940 270" class="edge"/>
  <rect x="960" y="240" width="68" height="16" fill="white" opacity="0.8"/>
  <text x="994" y="252" class="edge-label">rdfs:range</text>

  <!-- hasTitle/hasAuthor properties to Poem -->
  <path d="M 160 120 Q 300 80 600 95" class="edge"/>
  <rect x="350" y="75" width="75" height="16" fill="white" opacity="0.8"/>
  <text x="387" y="87" class="edge-label">rdfs:domain</text>

  <path d="M 1215 115 Q 1100 105 800 105" class="edge"/>
  <rect x="980" y="95" width="75" height="16" fill="white" opacity="0.8"/>
  <text x="1017" y="107" class="edge-label">rdfs:domain</text>

  <!-- Stanza to Line -->
  <path d="M 310 315 Q 700 320 1070 310" class="edge"/>
  <rect x="660" y="305" width="50" height="16" fill="white" opacity="0.8"/>
  <text x="685" y="317" class="edge-label">property</text>

  <path d="M 560 425 Q 900 380 1090 340" class="edge"/>
  <rect x="800" y="375" width="68" height="16" fill="white" opacity="0.8"/>
  <text x="834" y="387" class="edge-label">rdfs:range</text>

  <!-- Properties to their domains/ranges -->
  <path d="M 260 350 Q 285 410 295 455" class="edge"/>
  <rect x="265" y="400" width="50" height="16" fill="white" opacity="0.8"/>
  <text x="290" y="412" class="edge-label">property</text>

  <path d="M 250 350 Q 980 430 1050 475" class="edge"/>
  <rect x="640" y="410" width="50" height="16" fill="white" opacity="0.8"/>
  <text x="665" y="422" class="edge-label">property</text>

  <path d="M 1170 350 Q 1135 410 1115 455" class="edge"/>
  <rect x="1125" y="400" width="50" height="16" fill="white" opacity="0.8"/>
  <text x="1150" y="412" class="edge-label">property</text>

  <!-- Theme properties -->
  <path d="M 460 350 L 455 415" class="edge"/>
  <rect x="420" y="375" width="50" height="16" fill="white" opacity="0.8"/>
  <text x="445" y="387" class="edge-label">property</text>

  <!-- Metaphor properties -->
  <path d="M 690 350 L 690 415" class="edge"/>
  <rect x="655" y="375" width="50" height="16" fill="white" opacity="0.8"/>
  <text x="680" y="387" class="edge-label">property</text>

  <path d="M 720 350 Q 770 390 805 420" class="edge"/>
  <rect x="745" y="380" width="50" height="16" fill="white" opacity="0.8"/>
  <text x="770" y="392" class="edge-label">property</text>

  <!-- Speaker property -->
  <path d="M 920 350 Q 950 390 970 420" class="edge"/>
  <rect x="935" y="380" width="50" height="16" fill="white" opacity="0.8"/>
  <text x="960" y="392" class="edge-label">property</text>

  <!-- hasText to Literal -->
  <path d="M 255 510 Q 200 550 180 575" class="edge"/>
  <rect x="195" y="540" width="68" height="16" fill="white" opacity="0.8"/>
  <text x="229" y="552" class="edge-label">rdfs:range</text>

  <!-- hasOrder to xsd:integer -->
  <path d="M 1160 505 Q 1200 545 1230 575" class="edge"/>
  <rect x="1175" y="540" width="68" height="16" fill="white" opacity="0.8"/>
  <text x="1209" y="552" class="edge-label">rdfs:range</text>

  <!-- hasSubject to Literal -->
  <path d="M 390 470 Q 270 530 195 580" class="edge"/>
  <rect x="280" y="525" width="68" height="16" fill="white" opacity="0.8"/>
  <text x="314" y="537" class="edge-label">rdfs:range</text>

  <!-- hasVehicle/hasTenor/addressesTo to Literal -->
  <path d="M 650 480 Q 400 560 210 590" class="edge"/>
  <rect x="410" y="535" width="68" height="16" fill="white" opacity="0.8"/>
  <text x="444" y="547" class="edge-label">rdfs:range</text>

  <path d="M 785 480 Q 500 570 210 595" class="edge"/>
  <rect x="480" y="545" width="68" height="16" fill="white" opacity="0.8"/>
  <text x="514" y="557" class="edge-label">rdfs:range</text>

  <path d="M 930 480 Q 600 580 210 595" class="edge"/>
  <rect x="550" y="555" width="68" height="16" fill="white" opacity="0.8"/>
  <text x="584" y="567" class="edge-label">rdfs:range</text>

  <!-- hasDescription to Literal -->
  <path d="M 540 570 Q 350 585 210 595" class="edge"/>
  <rect x="355" y="575" width="68" height="16" fill="white" opacity="0.8"/>
  <text x="389" y="587" class="edge-label">rdfs:range</text>

  <!-- Legend -->
  <g id="legend">
    <text x="50" y="750" class="legend-text" font-weight="bold" font-size="14px">Legend:</text>

    <rect x="50" y="765" width="60" height="30" rx="5" class="class-node" filter="none"/>
    <text x="120" y="783" class="legend-text">Class (rdfs:Class)</text>

    <ellipse cx="80" cy="820" rx="40" ry="20" class="property-node" filter="none"/>
    <text x="120" y="825" class="legend-text">Property (rdf:Property)</text>

    <ellipse cx="80" cy="860" rx="40" ry="20" class="literal-node" filter="none"/>
    <text x="120" y="865" class="legend-text">Literal Type</text>

    <ellipse cx="80" cy="900" rx="40" ry="20" class="xsd-node" filter="none"/>
    <text x="120" y="905" class="legend-text">XSD Type</text>
  </g>

  <!-- Statistics -->
  <g id="stats">
    <text x="850" y="750" class="legend-text" font-weight="bold" font-size="14px">Schema Statistics:</text>
    <text x="850" y="775" class="legend-text">Classes: 6 (Poem, Stanza, Line, Theme, Metaphor, Speaker)</text>
    <text x="850" y="795" class="legend-text">Properties: 15</text>
    <text x="850" y="815" class="legend-text">  - Object Properties: 5 (hasStanza, hasLine, hasTheme,</text>
    <text x="870" y="830" class="legend-text">usesMetaphor, hasSpeaker)</text>
    <text x="850" y="850" class="legend-text">  - Datatype Properties: 10 (hasTitle, hasAuthor, hasText,</text>
    <text x="870" y="865" class="legend-text">hasOrder, hasSubject, hasDescription, hasVehicle,</text>
    <text x="870" y="880" class="legend-text">hasTenor, addressesTo)</text>
  </g>

  <script type="text/javascript">
    <![CDATA[
    function showInfo(id) {
      var box = document.getElementById(id + '-info-box');
      var text = document.getElementById(id + '-info-text');
      var text2 = document.getElementById(id + '-info-text2');
      if (box) box.style.display = 'block';
      if (text) text.style.display = 'block';
      if (text2) text2.style.display = 'block';
    }

    function hideInfo(id) {
      var box = document.getElementById(id + '-info-box');
      var text = document.getElementById(id + '-info-text');
      var text2 = document.getElementById(id + '-info-text2');
      if (box) box.style.display = 'none';
      if (text) text.style.display = 'none';
      if (text2) text2.style.display = 'none';
    }
    ]]>
  </script>
</svg>
